<svg width="56" height="56" viewBox="0 0 56 56" fill="none" xmlns="http://www.w3.org/2000/svg">
<path fill-rule="evenodd" clip-rule="evenodd" d="M26.0365 0.0274544C25.8259 0.0521896 25.1859 0.123112 24.6143 0.185169C19.6247 0.726825 14.5188 2.88776 10.4171 6.19374C3.90287 11.4439 0.000656666 19.5894 2.81112e-07 27.9375C-0.000109116 28.6057 0.0317256 29.5291 0.0706711 29.9896L0.141342 30.827L0.480912 30.826C0.667653 30.8256 1.06827 30.7953 1.37119 30.7589L1.9219 30.6926L1.91818 28.2152C1.91588 26.7354 1.97266 25.319 2.05908 24.698C2.41747 22.1233 3.28357 19.1127 4.24397 17.1038L4.7612 16.0219L5.79905 17.2079C6.57096 18.09 7.57972 19.0125 9.73616 20.8083L12.6353 23.2226L14.0342 23.8139C14.8439 24.1563 15.4696 24.3633 15.5199 24.3054C15.7132 24.0832 16.1937 22.7966 16.1132 22.7171C16.0656 22.6701 15.475 22.3947 14.8009 22.1051C13.6176 21.5969 13.4819 21.5012 10.8764 19.3367C8.80639 17.617 7.91097 16.791 7.03295 15.7911C6.40337 15.0742 5.86327 14.4222 5.83264 14.3425C5.68725 13.9634 7.94051 11.0785 9.79589 9.26801C10.9284 8.16303 11.094 8.03771 11.1704 8.22826C11.2181 8.34745 11.4819 9.16853 11.7566 10.0529C12.1179 11.2156 12.3258 11.7155 12.5077 11.8588C12.6462 11.9677 14.1156 12.4432 15.7729 12.9155L18.7865 13.7743L19.1988 16.3083C19.4256 17.7022 19.6797 18.9536 19.7636 19.0894C19.8474 19.2252 20.7394 19.9539 21.7456 20.7088L23.5751 22.0813L26.9117 26.365C29.5831 29.7946 30.3137 30.6669 30.5765 30.74C30.8622 30.8196 31.176 30.6975 33.0042 29.7954C34.3514 29.1306 35.1659 28.6642 35.2775 28.494C35.4062 28.2975 35.5725 27.0251 35.9183 23.5903L36.3852 18.952L38.0755 16.4182L39.7659 13.8844L41.7897 13.4853C42.9029 13.2657 43.9459 13.0429 44.1076 12.99C44.2692 12.937 45.1016 12.3658 45.9572 11.7206L47.5129 10.5475L47.8266 10.919C49.3428 12.7142 50.4906 14.4871 51.5394 16.6535C52.2349 18.0906 53.1671 20.5586 53.1671 20.9634C53.1671 21.0631 52.6354 21.6749 51.9857 22.3229L50.8043 23.5011L50.632 23.1419C50.3212 22.494 49.4616 21.4514 48.869 21.0038C47.567 20.0204 46.3923 19.6206 44.7982 19.6183C42.9053 19.6155 41.3953 20.2699 40.0824 21.6621C38.2066 23.651 37.7919 26.2632 38.9084 29.0553L39.1959 29.7743L38.3204 32.8484L37.4448 35.9226L34.585 40.2183C33.0121 42.5809 31.7252 44.6119 31.7252 44.7314C31.7252 44.8508 32.488 46.7786 33.4204 49.0154C34.3528 51.2522 35.0931 53.1049 35.0654 53.1326C34.9586 53.2393 32.8173 53.7089 31.6707 53.877C31.0087 53.9741 29.5071 54.0732 28.3339 54.0972L26.2006 54.1409L26.1443 54.9884C26.1102 55.5003 26.1319 55.8712 26.199 55.9252C26.3687 56.0619 30.6525 55.9203 31.8893 55.7371C38.4937 54.7588 44.1517 51.7587 48.7041 46.8212C50.5236 44.8478 51.9631 42.7051 53.2413 40.0671C56.1799 34.0028 56.7911 27.1187 54.9775 20.5093C52.7817 12.5064 47.0184 5.80334 39.383 2.37193C37.1761 1.38012 34.0565 0.511761 31.5064 0.179368C30.547 0.0543785 26.7148 -0.0521141 26.0365 0.0274544ZM31.7252 2.09766C36.8963 2.87879 41.9764 5.27941 45.5711 8.64066L46.1811 9.2111L44.8183 10.2252L43.4555 11.2394L41.2279 11.6804C40.0026 11.9229 38.8926 12.1749 38.7611 12.2405C38.6296 12.3061 37.6341 13.6953 36.5488 15.3275L34.5756 18.2953L34.1332 22.7279C33.89 25.1658 33.6688 27.2215 33.6419 27.2959C33.5891 27.4418 31.1054 28.717 31.0366 28.6336C31.0139 28.6059 29.6349 26.8298 27.9722 24.6866L24.9491 20.7897L23.2228 19.4989C22.2733 18.789 21.4773 18.1919 21.4536 18.1722C21.43 18.1525 21.2006 16.8929 20.9437 15.3729C20.5287 12.9172 20.4479 12.5847 20.219 12.3878C20.0589 12.25 18.81 11.837 16.9198 11.2965C14.9538 10.7344 13.8478 10.3668 13.7921 10.2568C13.7448 10.1632 13.5001 9.40833 13.2483 8.57915C12.9965 7.74998 12.7655 7.00639 12.735 6.92682C12.6511 6.70803 14.3485 5.62187 16.3548 4.61036C19.3389 3.10611 22.2489 2.28394 25.9818 1.89047C26.8817 1.79558 30.6179 1.93042 31.7252 2.09766ZM27.5681 3.85473C25.7008 4.25739 23.9959 5.58324 23.1155 7.31744C21.9155 9.68085 22.2975 12.4872 24.1959 15.2541C24.8887 16.264 26.7738 18.2019 27.8305 18.9906C28.8261 19.7336 29.0494 19.7329 30.0406 18.9826C32.465 17.1472 34.37 14.6795 35.1336 12.3851C35.3462 11.7462 35.3886 11.3916 35.3886 10.2509C35.3886 9.09443 35.3491 8.77276 35.1335 8.17135C33.9946 4.99452 30.7823 3.1616 27.5681 3.85473ZM29.7604 5.65493C30.9749 5.88531 32.2397 6.73441 32.8847 7.75227C33.5151 8.74748 33.7488 10.2388 33.4614 11.4337C33.2544 12.2942 32.5633 13.6503 31.8525 14.5907C31.2187 15.429 29.8841 16.7746 29.2098 17.255L28.9085 17.4696L28.0997 16.7792C26.2131 15.1686 24.9052 13.2652 24.4413 11.4548C23.5966 8.15778 26.4653 5.02976 29.7604 5.65493ZM15.8625 7.45994V8.39024H16.7924H17.7223V7.45994V6.52963H16.7924H15.8625V7.45994ZM28.0257 7.61338C25.727 8.40765 25.5044 11.587 27.6705 12.6861C28.7163 13.2167 30.0533 13.0321 30.8874 12.2418C31.6696 11.5007 31.9368 10.1816 31.507 9.18232C31.1855 8.43435 30.4859 7.79638 29.7465 7.57672C29.0142 7.35914 28.7449 7.36483 28.0257 7.61338ZM39.2372 7.47822C39.197 7.51827 39.1642 7.93691 39.1642 8.40852V9.26583H40.0941H41.024V8.33552V7.40521H40.1671C39.6957 7.40521 39.2772 7.43805 39.2372 7.47822ZM29.6193 9.65907C30.1459 10.2488 29.737 11.1264 28.9355 11.1264C28.1829 11.1264 27.7552 10.3289 28.1815 9.72014C28.5438 9.20257 29.1872 9.17531 29.6193 9.65907ZM4.70398 22.3448V23.2751H5.63386H6.56374V22.3448V21.4145H5.63386H4.70398V22.3448ZM45.623 21.5248C46.5 21.6912 47.3027 22.1056 47.9685 22.7356C48.979 23.6917 49.4476 24.763 49.4476 26.1176C49.4476 27.3846 48.9989 28.6167 47.9918 30.1156C47.5421 30.785 45.4027 32.999 44.9945 33.2176C44.7987 33.3224 44.6648 33.2487 43.9616 32.6483C43.0372 31.8593 42.1325 30.8526 41.4783 29.8852C39.7311 27.3017 39.7173 24.7652 41.4406 22.9221C42.074 22.2446 42.737 21.8518 43.6495 21.6131C44.4916 21.3929 44.8446 21.3771 45.623 21.5248ZM29.8654 23.3299V24.2602H30.7953H31.7252V23.3299V22.3996H30.7953H29.8654V23.3299ZM44.0659 23.4241C43.5393 23.5701 43.3857 23.6609 42.8463 24.1452C41.4622 25.388 41.9131 27.8804 43.658 28.6313C44.3176 28.9152 45.2916 28.9509 45.8625 28.7123C46.4423 28.4699 47.0503 27.8729 47.3306 27.2707C48.3149 25.1561 46.3152 22.8 44.0659 23.4241ZM53.9453 24.7013C54.1617 26.231 54.1345 30.0252 53.8959 31.5932C53.0277 37.2978 50.6625 42.124 46.7711 46.1318C44.4914 48.4794 42.4451 49.98 39.6018 51.3893C37.9222 52.2218 37.027 52.5849 36.9195 52.4774C36.889 52.4468 36.1582 50.7279 35.2957 48.6577L33.7276 44.8938L36.4331 40.8358L39.1386 36.7778L39.8206 34.3771C40.1957 33.0566 40.5169 31.9602 40.5345 31.9407C40.552 31.9211 41.1 32.4434 41.7523 33.1011C43.2504 34.6118 44.3167 35.4238 44.8024 35.4238C45.2576 35.4238 46.178 34.7537 47.5653 33.4122C49.9465 31.1094 51.3073 28.5419 51.3073 26.3513V25.6319L52.4811 24.4539C53.817 23.1132 53.7182 23.0965 53.9453 24.7013ZM7.00133 24.4584C5.33619 25.0131 4.10711 26.4448 3.81054 28.1752C3.63998 29.1702 3.79172 30.061 4.30271 31.064L4.67434 31.7936L4.18446 31.9169C2.47775 32.3469 0.959198 33.7442 0.304563 35.4874C0.0704523 36.1104 0.0610441 36.2797 0.0578716 39.9112C0.0548084 43.4298 0.0690301 43.7162 0.266493 44.1143C0.767205 45.124 1.59906 45.6279 2.87158 45.6922L3.71941 45.7351V50.5476V55.3602L4.03918 55.6801L4.35895 56H8.40293C12.2211 56 12.4614 55.9883 12.7052 55.7908L12.9635 55.5817L13.0182 50.6742L13.0729 45.7666L13.9481 45.7056C14.9657 45.6346 15.5396 45.3821 16.078 44.7687C16.791 43.9563 16.7924 43.947 16.7924 40.0206C16.7924 36.6419 16.7802 36.4245 16.5475 35.6843C15.976 33.8664 14.4206 32.3592 12.6583 31.9157C12.37 31.8431 12.1507 31.7533 12.1709 31.7159C12.9013 30.3621 12.9635 30.1419 12.9635 28.9117C12.9635 27.7855 12.941 27.6603 12.6151 26.9719C12.1355 25.959 11.4151 25.2206 10.433 24.7349C9.72271 24.3837 9.51955 24.3349 8.61812 24.2987C7.84162 24.2675 7.46157 24.305 7.00133 24.4584ZM18.1441 24.5065C16.8349 24.9659 15.9751 25.7376 15.3853 26.9829C15.0652 27.6587 15.0421 27.7892 15.0421 28.9117C15.0421 30.0379 15.0646 30.1631 15.3905 30.8514C15.8718 31.8681 16.5928 32.6071 17.5482 33.0633C17.9749 33.2669 18.4101 33.4612 18.5154 33.495C18.6878 33.5503 18.7069 33.7414 18.7069 35.4204V37.2844H19.6367H20.5666V35.4106V33.5368L21.9067 33.5827C23.0801 33.6229 23.3285 33.666 23.9033 33.9298C24.7527 34.3196 25.3955 34.9575 25.7819 35.7941L26.0912 36.4636L26.1243 39.8316L26.1576 43.1998L25.8319 43.5255C25.5486 43.8091 25.4272 43.8513 24.8963 43.8513H24.2861V41.4982V39.1451H23.3563H22.4264V46.6422V54.1394H21.4965H20.5666V50.856V47.5725H19.6367H18.7069V50.856V54.1394H17.7786H16.8504L16.8214 50.8833L16.7924 47.6273L15.8899 47.5955L14.9874 47.5637V51.5132V55.4627L15.2559 55.7313L15.5244 56H19.5854H23.6466L23.9664 55.6801L24.2861 55.3602V50.536V45.7119H24.9834C26.2388 45.7119 27.0865 45.248 27.6325 44.2622L27.951 43.6871L27.9482 39.9112C27.9457 36.2757 27.9365 36.1112 27.7016 35.4874C27.0418 33.7348 25.5386 32.3497 23.8294 31.9191L23.3312 31.7936L23.7023 31.064C23.9064 30.6627 24.1276 30.0208 24.1938 29.6373C24.5376 27.6454 23.4099 25.5777 21.4891 24.6785C20.4774 24.2048 19.1924 24.1387 18.1441 24.5065ZM45.4819 25.5338C46.0038 26.1081 45.599 26.9964 44.8152 26.9964C44.0424 26.9964 43.6106 26.1498 44.0794 25.5535C44.4587 25.0711 45.0538 25.0627 45.4819 25.5338ZM9.2139 26.2353C10.3073 26.5391 11.1593 27.7058 11.1573 28.8968C11.1549 30.4184 10.1344 31.5381 8.62523 31.675C7.83811 31.7464 7.15197 31.5099 6.53902 30.9558C4.36266 28.9887 6.37055 25.4452 9.2139 26.2353ZM20.7307 26.3783C22.5789 27.2412 22.9592 29.6067 21.4665 30.9558C20.0668 32.221 17.8897 31.8036 17.1061 30.1201C16.0158 27.7778 18.4176 25.2984 20.7307 26.3783ZM7.43892 35.4238V37.2844H8.3688H9.29868V35.4109V33.5374L10.6935 33.5825C11.9115 33.6219 12.1673 33.664 12.7114 33.915C13.4601 34.2603 14.1973 34.9689 14.5359 35.6687C14.9001 36.4213 14.9828 37.2578 14.9852 40.2157C14.988 43.6728 14.9213 43.8513 13.6271 43.8513H13.0182V41.4938V39.1362L12.1157 39.168L11.2131 39.1998L11.185 46.6696L11.1569 54.1394H10.2278H9.29868V50.856V47.5725H8.3688H7.43892V50.856V54.1394H6.50904H5.57916V46.6422V39.1451H4.64929H3.71941V41.4982V43.8513H3.1093C2.5808 43.8513 2.45641 43.8085 2.17942 43.5314L1.85965 43.2115V40.0489C1.85965 36.6508 1.92015 36.172 2.45762 35.3203C2.93426 34.5648 3.88766 33.8936 4.78428 33.6823C5.01095 33.6289 5.70082 33.5803 6.3176 33.5742L7.43892 33.5632V35.4238ZM44.8529 40.071V41.0057H45.7871H46.7215L46.6897 40.1027L46.6579 39.1998L45.7554 39.168L44.8529 39.1362V40.071ZM36.4293 44.7816V45.7119H37.3591H38.289V44.7816V43.8513H37.3591H36.4293V44.7816Z" fill="white"/>
</svg>
