<svg width="47" height="47" viewBox="0 0 47 47" fill="none" xmlns="http://www.w3.org/2000/svg">
<path fill-rule="evenodd" clip-rule="evenodd" d="M12.5904 0.136973C12.4227 0.220068 12.1749 0.433322 12.0397 0.610911L11.7937 0.933826L11.7702 23.4003C11.7441 48.4377 11.687 46.2282 12.3731 46.7524L12.6972 47H23.4957H34.2941L34.6182 46.7524C35.3022 46.2299 35.2435 48.4136 35.2435 23.5145C35.2435 -1.38457 35.3022 0.799071 34.6182 0.276599L34.2941 0.028967L23.5946 0.00745777C13.8281 -0.0121212 12.8685 -0.000906936 12.5904 0.136973ZM33.775 23.5145V45.5752H23.4957H13.2163V23.5145V1.45372H23.4957H33.775V23.5145ZM20.5587 3.6598V4.39516H23.4957H26.4326V3.6598V2.92444H23.4957H20.5587V3.6598ZM0.241932 4.63746L0 4.87985V23.5145V42.1491L0.241932 42.3915L0.483955 42.6338H5.38161H10.2793V41.8984V41.1631H5.87391H1.46848V26.4559V11.7487H5.87391H10.2793V11.0134V10.278H5.87391H1.46848V8.07195V5.86588H5.87391H10.2793V5.13052V4.39516H5.38161H0.483955L0.241932 4.63746ZM36.712 5.13052V5.86588H41.1174H45.5228V8.07195V10.278H41.1174H36.712V11.0134V11.7487H41.1174H45.5228V26.4559V41.1631H41.1174H36.712V41.8984V42.6338L41.5992 42.6309C46.7558 42.6278 46.6544 42.636 46.8846 42.2033C47.0385 41.9137 47.0385 5.11526 46.8846 4.82571C46.6544 4.39295 46.7558 4.40113 41.5992 4.3981L36.712 4.39516V5.13052ZM14.9267 6.10818L14.6848 6.35057V21.3084V36.2662L14.9267 36.5086L15.1687 36.7509H16.7623H18.356V36.0156V35.2802H17.2546H16.1533V21.3084V7.33659H17.2546H18.356V6.60123V5.86588H16.7623H15.1687L14.9267 6.10818ZM19.8245 6.60123V7.33659H23.4957H27.1668V6.60123V5.86588H23.4957H19.8245V6.60123ZM28.6353 6.60123V7.33659H29.7367H30.838V21.3084V35.2802H29.7367H28.6353V36.0156V36.7509L30.2185 36.748C31.8726 36.745 31.9871 36.7202 32.1998 36.3204C32.3535 36.0311 32.3535 6.5857 32.1998 6.29643C31.9871 5.89658 31.8726 5.87185 30.2185 5.86882L28.6353 5.86588V6.60123ZM2.93696 8.07195V8.80731H3.6712H4.40544V8.07195V7.33659H3.6712H2.93696V8.07195ZM5.87391 8.07195V8.80731H6.60815H7.34239V8.07195V7.33659H6.60815H5.87391V8.07195ZM8.81087 8.07195V8.80731H9.54511H10.2793V8.07195V7.33659H9.54511H8.81087V8.07195ZM39.6489 8.07195V8.80731H41.8516H44.0543V8.07195V7.33659H41.8516H39.6489V8.07195ZM18.7846 13.2106C17.7856 14.2297 17.6217 14.4381 17.6217 14.6902C17.6217 14.9422 17.7856 15.1507 18.7846 16.1697C19.4242 16.8221 19.9936 17.3559 20.0501 17.3559C20.1736 17.3559 21.0176 16.5128 21.0176 16.3893C21.0176 16.3415 20.6571 15.9396 20.2164 15.4963L19.4153 14.6902L20.2164 13.884C20.6571 13.4407 21.0176 13.0358 21.0176 12.9844C21.0176 12.8619 20.1678 12.0245 20.0434 12.0245C19.9907 12.0245 19.4242 12.5583 18.7846 13.2106ZM26.4062 12.4642C26.1684 12.7062 25.9737 12.9432 25.9737 12.991C25.9737 13.0388 26.3342 13.4407 26.7749 13.884L27.576 14.6902L26.7749 15.4963C26.3342 15.9396 25.9737 16.3446 25.9737 16.3959C25.9737 16.5185 26.8235 17.3559 26.9479 17.3559C27.0006 17.3559 27.5671 16.8221 28.2067 16.1697C29.2057 15.1507 29.3696 14.9422 29.3696 14.6902C29.3696 14.4381 29.2057 14.2297 28.2067 13.2106C27.5671 12.5583 26.9977 12.0245 26.9413 12.0245C26.8849 12.0245 26.6441 12.2224 26.4062 12.4642ZM22.8149 14.3914C22.4321 15.5416 22.119 16.5306 22.119 16.5892C22.119 16.688 23.1166 17.0801 23.3682 17.0801C23.4652 17.0801 24.8724 13.077 24.8724 12.8009C24.8724 12.7228 23.7694 12.3003 23.5656 12.3003C23.5356 12.3003 23.1977 13.2413 22.8149 14.3914ZM18.356 21.3084V22.0438H19.8245H21.2929V21.3084V20.573H19.8245H18.356V21.3084ZM22.7614 21.3084V22.0438H25.6984H28.6353V21.3084V20.573H25.6984H22.7614V21.3084ZM18.356 24.2498V24.9852H21.2929H24.2299V24.2498V23.5145H21.2929H18.356V24.2498ZM25.6984 24.2498V24.9852H27.1668H28.6353V24.2498V23.5145H27.1668H25.6984V24.2498ZM18.356 27.1913V27.9266H19.8245H21.2929V27.1913V26.4559H19.8245H18.356V27.1913ZM22.7614 27.1913V27.9266H25.6984H28.6353V27.1913V26.4559H25.6984H22.7614V27.1913ZM18.356 30.1327V30.8681H21.2929H24.2299V30.1327V29.3974H21.2929H18.356V30.1327ZM25.6984 30.1327V30.8681H27.1668H28.6353V30.1327V29.3974H27.1668H25.6984V30.1327ZM19.8245 36.0156V36.7509H23.4957H27.1668V36.0156V35.2802H23.4957H19.8245V36.0156ZM22.6054 38.3872C21.6084 38.7439 20.9731 39.415 20.6816 40.419C20.2982 41.7398 20.9954 43.2085 22.2946 43.8172C22.7044 44.0091 22.9454 44.0574 23.4957 44.0574C24.6836 44.0574 25.6411 43.4462 26.1457 42.366C26.6409 41.3057 26.3945 39.9361 25.5577 39.0979C24.8111 38.3503 23.5541 38.0477 22.6054 38.3872ZM24.3508 39.9951C25.2449 40.678 25.103 42.0094 24.0844 42.4934C23.1054 42.9587 21.9287 42.1018 22.0512 41.0128C22.1762 39.9023 23.4762 39.3269 24.3508 39.9951Z" fill="#FF001E"/>
</svg>
