<svg width="41" height="41" viewBox="0 0 41 41" fill="none" xmlns="http://www.w3.org/2000/svg">
<path fill-rule="evenodd" clip-rule="evenodd" d="M3.55148 0.0665557C2.36965 0.242454 1.07052 1.16683 0.506496 2.23293C-0.0259846 3.23927 0.000210178 2.47274 0.000210178 17.0684C0.000210178 26.4684 0.0288579 30.5513 0.0970169 30.8817C0.421254 32.4526 1.66739 33.7771 3.20096 34.1807C3.63708 34.2955 4.54513 34.3164 9.09189 34.3164C14.1712 34.3164 14.4647 34.3249 14.4193 34.4713C14.3929 34.5565 14.2311 35.0744 14.0599 35.6221L13.7484 36.618L13.0726 36.6219C11.99 36.6281 11.3468 36.9601 10.8874 37.7497C10.6845 38.0986 10.6446 38.2691 10.6446 38.7869C10.6446 39.7329 11.0745 40.4191 11.9149 40.8145C12.3063 40.9987 12.3683 41 20.5443 41H28.7794L29.2397 40.7423C30.9002 39.8126 30.7141 37.3866 28.9329 36.7444C28.7521 36.6791 28.3 36.6241 27.9282 36.6219L27.2523 36.618L26.9312 35.5779C26.7546 35.0058 26.5914 34.488 26.5684 34.4271C26.5353 34.3393 27.6123 34.3164 31.7741 34.3164C37.4891 34.3164 37.5207 34.314 38.544 33.8028C39.1757 33.4872 40.1038 32.55 40.4541 31.8737C41.0262 30.7693 40.998 31.537 40.9994 17.0273C41.0009 2.40218 41.0299 3.15039 40.4204 2.12386C39.8692 1.19542 39.1423 0.597525 38.1049 0.219172L37.5402 0.0131754L20.8071 0.000959003C11.5705 -0.00576886 3.83989 0.0236214 3.55148 0.0665557ZM37.9498 1.53234C38.502 1.79022 39.1262 2.38811 39.4097 2.93094L39.6428 3.3771L39.6659 15.2615L39.689 27.1459H20.5005H1.31188L1.335 15.2615L1.35813 3.3771L1.59126 2.93094C1.97752 2.19141 2.74085 1.56979 3.47982 1.39292C3.67002 1.34742 10.9923 1.31953 20.6757 1.32732L37.5402 1.34104L37.9498 1.53234ZM4.81864 4.74923C4.72131 4.84758 4.64343 5.04429 4.64343 5.19186C4.64343 5.33943 4.72131 5.53613 4.81864 5.63448C4.99018 5.80781 5.11064 5.81153 10.557 5.81153C16.0033 5.81153 16.1237 5.80781 16.2953 5.63448C16.3926 5.53613 16.4705 5.33943 16.4705 5.19186C16.4705 5.04429 16.3926 4.84758 16.2953 4.74923C16.1237 4.5759 16.0033 4.57219 10.557 4.57219C5.11064 4.57219 4.99018 4.5759 4.81864 4.74923ZM25.5598 8.04473C23.7891 9.07852 22.3409 9.94509 22.3417 9.97041C22.3425 9.99572 23.8005 10.8658 25.5816 11.904L28.8201 13.7916L32.0619 11.904C33.8449 10.8658 35.3043 9.9959 35.305 9.97076C35.3062 9.92428 29.1356 6.30125 28.9053 6.21316C28.8353 6.18643 27.3489 7.00023 25.5598 8.04473ZM4.87428 7.94258C4.55503 8.19629 4.55503 8.64971 4.87428 8.90342C5.10214 9.08463 5.17407 9.08693 10.557 9.08693C15.9399 9.08693 16.0118 9.08463 16.2396 8.90342C16.4071 8.77037 16.4705 8.63838 16.4705 8.423C16.4705 8.20762 16.4071 8.07563 16.2396 7.94258C16.0118 7.76137 15.9399 7.75907 10.557 7.75907C5.17407 7.75907 5.10214 7.76137 4.87428 7.94258ZM4.81864 11.2115C4.58254 11.4501 4.58718 11.9294 4.82784 12.1494C5.00507 12.3115 5.22742 12.3181 10.557 12.3181C15.8865 12.3181 16.1088 12.3115 16.2861 12.1494C16.5267 11.9294 16.5314 11.4501 16.2953 11.2115C16.1237 11.0382 16.0033 11.0345 10.557 11.0345C5.11064 11.0345 4.99018 11.0382 4.81864 11.2115ZM21.6603 14.938L21.6832 18.7693L24.9132 20.6559C26.6896 21.6936 28.1586 22.5427 28.1775 22.5427C28.1964 22.5427 28.2015 20.8224 28.189 18.7199L28.1661 14.8971L25.4503 13.3126C23.9566 12.441 22.4877 11.5882 22.1859 11.4173L21.6375 11.1067L21.6603 14.938ZM32.7218 13.0078L29.4803 14.8955L29.4574 18.719C29.4449 20.822 29.4499 22.5427 29.4685 22.5427C29.5254 22.5427 35.8572 18.8344 35.9357 18.7551C35.976 18.7144 35.9986 16.9799 35.9861 14.9005L35.9633 11.1201L32.7218 13.0078ZM12.451 14.3056C12.288 14.347 12.0318 14.5049 11.8815 14.6566L11.6083 14.9325L11.5804 16.3402C11.5492 17.9197 11.6101 18.1623 12.1163 18.4741C12.3654 18.6276 12.5634 18.647 13.8875 18.6472C15.5725 18.6476 15.8433 18.5723 16.1352 18.0224C16.3654 17.5888 16.3701 15.3881 16.1418 14.9358C15.8352 14.3282 15.6575 14.2677 14.1206 14.2481C13.3652 14.2384 12.6138 14.2643 12.451 14.3056ZM5.5118 14.6002C5.04879 14.9156 4.99658 15.1037 4.99517 16.461C4.99421 17.3737 5.02698 17.7473 5.12475 17.9384C5.38135 18.4397 5.5012 18.4705 7.19685 18.4705C8.73489 18.4705 8.74979 18.4687 9.01541 18.2428C9.39221 17.9224 9.48744 17.4715 9.44601 16.2038C9.39046 14.506 9.25397 14.3984 7.15602 14.3984C5.89815 14.3984 5.78846 14.4119 5.5118 14.6002ZM14.9812 16.4345V17.3197H13.8861H12.791V16.4345V15.5492H13.8861H14.9812V16.4345ZM5.38109 20.3194C4.91694 20.6054 4.81864 20.9542 4.81864 22.3154C4.81864 23.6956 4.91046 24.0333 5.36094 24.3108C5.62376 24.4728 5.80064 24.4896 7.25108 24.4898L8.85115 24.4902L9.17845 24.1873L9.50567 23.8846L9.53353 22.4684C9.56471 20.8795 9.50435 20.6381 8.99763 20.326C8.74768 20.172 8.55048 20.1531 7.18406 20.1531C5.83822 20.1531 5.61798 20.1735 5.38109 20.3194ZM12.0375 20.6305L11.7397 20.9315V22.2641C11.7397 24.2656 11.7966 24.3321 13.5564 24.3863C15.1097 24.4342 15.4642 24.3739 15.8361 23.9981L16.1322 23.699L16.1042 22.2723L16.0763 20.8457L15.7901 20.5877L15.504 20.3295H13.9197H12.3354L12.0375 20.6305ZM8.27916 22.3213V23.2066L7.20596 23.2315L6.13276 23.2563V22.3213V21.3863L7.20596 21.4112L8.27916 21.4361V22.3213ZM21.1751 29.267C21.7219 29.6038 21.926 30.452 21.5962 31.0161C21.3946 31.3609 20.8753 31.6607 20.4796 31.6607C20.1405 31.6607 19.6893 31.3887 19.4207 31.0222C19.1909 30.7088 19.1885 30.0996 19.4156 29.7023C19.7424 29.1306 20.6068 28.9168 21.1751 29.267Z" fill="#FF001E"/>
</svg>
